<?xml version="1.0" standalone="no"?>
<!DOCTYPE svg PUBLIC "-//W3C//DTD SVG 20010904//EN"
 "http://www.w3.org/TR/2001/REC-SVG-20010904/DTD/svg10.dtd">
<svg version="1.0" xmlns="http://www.w3.org/2000/svg"
 width="600.000000pt" height="600.000000pt" viewBox="0 0 600.000000 600.000000"
 preserveAspectRatio="xMidYMid meet">
<g transform="translate(0.000000,600.000000) scale(0.100000,-0.100000)"
fill="#000000" stroke="none">
<path d="M3330 5470 c-36 -10 -80 -23 -97 -28 -34 -11 -42 -5 -21 16 17 17 -1
15 -45 -3 -46 -19 -51 -19 -43 1 8 20 -22 12 -82 -23 -23 -13 -47 -21 -52 -18
-5 3 -19 1 -31 -5 -26 -14 -36 -6 -19 15 23 28 -9 17 -71 -24 -46 -31 -59 -35
-61 -23 -2 12 -12 8 -42 -19 l-39 -34 7 30 7 30 -41 -40 c-32 -31 -43 -37 -49
-26 -7 11 -13 6 -26 -18 -15 -30 -18 -31 -29 -16 -11 16 -14 14 -26 -14 -12
-29 -14 -31 -30 -16 -17 15 -19 14 -30 -19 -11 -33 -30 -50 -30 -26 0 21 -18
9 -30 -20 -14 -33 -30 -40 -31 -12 0 9 -10 -4 -22 -29 -12 -26 -27 -45 -33
-42 -6 2 -19 -16 -28 -41 -19 -50 -46 -80 -46 -52 0 13 -6 10 -26 -11 -24 -26
-25 -26 -21 -6 5 22 5 22 -47 -5 -28 -15 -54 -28 -59 -30 -4 -2 -4 5 -1 15 3
10 -10 0 -30 -22 -27 -31 -35 -36 -36 -21 0 16 -2 16 -21 -5 -11 -13 -17 -18
-13 -10 4 8 -19 -8 -52 -35 -33 -27 -84 -65 -113 -84 -63 -40 -148 -149 -232
-297 -30 -52 -95 -145 -146 -207 -103 -124 -176 -244 -193 -318 -7 -27 -10
-51 -7 -54 2 -3 38 6 78 20 104 35 300 83 389 96 41 6 86 13 100 16 20 4 23 3
13 -7 -21 -21 -15 -24 32 -21 43 4 61 -9 33 -22 -7 -3 10 -5 38 -3 50 2 51 1
38 -18 -20 -28 -17 -44 6 -38 26 7 25 -5 -2 -35 l-23 -25 28 5 c23 5 27 3 21
-11 -14 -35 -16 -51 -5 -51 7 0 8 -8 1 -26 -9 -22 -8 -25 6 -20 13 5 15 1 12
-19 -6 -29 -6 -30 33 -9 37 19 43 15 29 -20 -15 -41 -13 -48 11 -35 20 10 21
9 18 -35 -4 -48 1 -56 21 -31 18 21 27 11 35 -38 10 -57 16 -64 30 -37 l12 23
19 -32 c20 -33 30 -38 37 -18 3 8 13 4 33 -13 16 -14 44 -36 62 -48 31 -22 32
-22 32 -3 0 18 6 16 58 -18 31 -21 68 -44 81 -51 23 -12 24 -12 17 20 -6 32
-6 32 17 16 47 -34 57 -38 57 -21 0 20 7 19 38 -6 24 -18 27 -19 32 -4 13 36
30 -13 51 -144 20 -128 20 -136 4 -216 -14 -74 -15 -89 -1 -141 31 -125 39
-223 33 -438 -8 -289 -34 -448 -82 -512 -28 -37 -68 -50 -200 -63 -212 -21
-279 -23 -531 -10 -142 8 -313 14 -380 14 -108 -1 -126 -3 -169 -25 -49 -26
-102 -83 -60 -66 11 5 45 11 76 14 49 4 60 1 79 -18 21 -21 28 -22 114 -16 52
4 188 0 316 -9 124 -8 303 -15 398 -15 136 0 172 -3 172 -13 0 -18 -88 -88
-316 -253 -222 -161 -227 -165 -323 -257 -73 -72 -101 -111 -101 -142 0 -11
11 -5 34 19 33 36 42 40 83 36 27 -2 67 19 135 70 78 57 654 429 717 462 90
47 91 46 195 -81 98 -119 254 -254 350 -303 31 -16 44 -18 62 -9 44 20 30 48
-84 165 -122 126 -221 265 -257 361 -14 36 -25 69 -25 74 0 28 221 73 334 69
74 -3 76 -2 106 31 27 29 35 32 65 27 34 -7 35 -6 24 17 -23 50 -82 57 -262
32 -122 -17 -247 -23 -264 -12 -55 34 -47 498 13 709 8 29 20 94 25 143 13
108 3 158 -64 345 -67 188 -64 173 -28 165 19 -4 31 -3 31 4 0 7 8 7 26 1 37
-15 46 -12 39 10 -8 24 -2 25 30 4 24 -16 25 -15 25 5 0 25 17 27 67 6 45 -19
46 -19 38 6 -6 19 -4 21 18 15 14 -3 32 -9 41 -12 14 -5 15 -2 6 21 -15 39
-13 41 15 15 22 -21 29 -22 45 -12 27 16 32 15 22 -5 -24 -47 -21 -132 3 -93
12 19 25 -1 25 -38 l1 -37 25 29 c14 15 26 27 28 25 2 -2 13 -34 25 -71 24
-71 35 -83 47 -46 l6 21 13 -23 c9 -17 14 -19 20 -10 41 67 23 -323 -19 -425
-26 -61 -25 -260 1 -385 51 -242 82 -617 65 -791 -11 -112 -40 -221 -63 -235
-17 -10 -21 3 -11 40 10 34 9 37 -26 64 -76 60 -231 161 -254 167 -34 9 -60
-18 -56 -59 3 -26 7 -31 30 -31 19 0 36 -13 66 -50 22 -27 76 -81 121 -120 62
-53 78 -72 69 -82 -48 -59 -566 -222 -798 -253 -239 -31 -358 -64 -418 -116
-60 -51 -56 -65 14 -42 51 17 58 18 73 4 24 -21 76 -20 153 4 36 11 100 25
144 31 121 16 391 73 610 129 186 47 286 61 298 41 3 -5 9 -71 12 -147 7 -152
-9 -303 -46 -424 -15 -50 -18 -80 -13 -137 3 -40 9 -73 12 -73 3 0 22 28 42
63 23 41 41 61 52 59 20 -3 36 26 46 86 17 95 112 548 122 579 6 18 14 35 19
38 5 3 64 -12 132 -34 166 -53 373 -112 548 -156 79 -20 190 -52 247 -71 119
-40 127 -40 153 -14 22 22 50 20 103 -7 34 -17 35 -4 1 37 -39 46 -103 74
-275 120 -297 80 -686 202 -789 248 -79 35 -110 85 -136 220 -37 195 -43 827
-9 992 19 92 13 245 -15 370 -19 85 -40 272 -40 363 l0 47 40 -20 41 -21 -7
27 -7 27 63 -7 62 -7 -22 36 -22 36 53 -7 54 -7 -18 21 c-19 21 -19 21 18 28
l36 6 -20 22 c-26 28 -26 36 -1 36 28 0 25 12 -10 35 -38 26 -38 35 1 35 24 0
30 4 25 15 -6 17 11 19 48 5 14 -5 26 -7 26 -3 0 3 -14 34 -31 69 -18 36 -29
67 -26 70 3 4 24 -1 47 -10 40 -16 53 -9 25 14 -21 18 -19 32 5 25 30 -9 24
10 -15 54 -19 21 -35 41 -35 43 0 3 21 1 48 -3 26 -4 53 -8 60 -8 8 -1 -8 24
-35 55 l-48 57 38 -5 c20 -2 37 -2 37 2 -1 3 -14 21 -31 40 l-30 35 41 3 c44
3 48 8 23 28 -16 12 -15 13 10 14 34 0 34 11 0 32 l-28 16 28 7 c18 5 26 12
23 21 -3 8 0 11 8 8 7 -3 22 -1 35 4 20 7 17 11 -38 47 -34 22 -61 43 -61 46
0 3 30 14 68 25 l67 20 -42 28 c-52 35 -54 53 -8 62 46 8 51 18 17 34 l-27 13
47 16 c59 20 65 27 33 35 -36 9 -31 22 22 53 l47 27 -64 30 c-68 32 -68 33 -4
72 18 11 17 12 -6 17 -88 19 -86 19 -65 27 24 9 13 15 -54 27 -49 9 -64 28
-32 38 34 10 24 24 -21 31 l-41 7 29 24 c16 12 23 23 17 23 -22 0 -14 20 12
30 14 5 25 12 25 15 0 3 -18 12 -41 21 l-40 17 27 28 28 29 -55 0 -54 1 45 39
c31 27 40 40 30 44 -8 2 -49 14 -90 26 l-75 22 39 34 c38 33 38 34 14 34 -28
0 -53 23 -43 40 5 8 -9 9 -47 4 l-53 -6 40 28 40 28 -78 15 c-42 8 -77 17 -77
21 0 3 16 12 35 19 52 18 44 34 -15 29 -57 -5 -64 4 -20 22 52 21 33 30 -65
30 -94 0 -107 4 -82 29 10 10 3 11 -33 5 l-45 -7 20 23 20 23 -25 -7 c-71 -19
-81 -19 -74 -1 7 18 2 18 -83 -2 -25 -6 -32 12 -8 21 15 5 21 27 8 25 -5 0
-37 -9 -73 -19z m-905 -530 c-10 -11 -23 -20 -29 -20 -6 1 0 10 13 20 30 26
39 26 16 0z m70 -30 c-10 -11 -23 -20 -28 -20 -6 0 0 11 13 25 27 29 42 25 15
-5z m104 -46 c-15 -14 -79 -29 -79 -18 0 7 62 33 80 34 12 0 12 -2 -1 -16z
m89 -36 c-16 -25 -73 -37 -90 -20 -7 7 7 15 38 25 67 20 69 20 52 -5z m62 -58
c-11 -20 -43 -26 -74 -14 -29 11 3 34 46 34 36 0 38 -2 28 -20z m25 -50 c-28
-12 -57 -12 -50 0 3 6 21 10 38 9 27 0 29 -2 12 -9z m-842 -11 l37 -10 -68
-67 c-38 -37 -88 -93 -112 -126 -35 -48 -44 -56 -52 -43 -11 20 -33 13 -70
-21 -17 -16 -28 -21 -28 -13 0 32 89 180 140 233 60 63 78 68 153 47z m122
-185 c-16 -8 -38 -23 -47 -31 -25 -22 -23 -2 2 25 12 12 33 22 48 22 l27 0
-30 -16z m-405 -201 c0 -10 -52 -63 -62 -63 -15 0 -8 17 18 44 26 25 44 33 44
19z m189 -136 c-2 -2 -42 -16 -89 -31 -94 -31 -211 -87 -293 -139 -64 -41 -97
-59 -97 -53 0 7 115 77 212 130 116 63 250 117 262 105 5 -5 8 -10 5 -12z
m915 -2341 c-13 -21 -50 -54 -217 -194 -9 -9 -20 -13 -22 -10 -10 9 219 228
238 228 16 0 16 -2 1 -24z m229 -36 c65 -76 127 -207 81 -169 -9 8 -36 44 -61
80 -24 37 -50 72 -58 79 -8 7 -15 19 -15 26 0 24 27 16 53 -16z m-803 -384 c0
-2 -8 -10 -17 -17 -16 -13 -17 -12 -4 4 13 16 21 21 21 13z m1529 -112 l-24
-26 23 -15 c28 -19 29 -60 3 -136 -11 -32 -30 -126 -41 -210 -24 -165 -47
-288 -57 -296 -13 -12 8 161 35 294 25 123 28 149 20 215 -20 167 -13 200 40
200 l25 0 -24 -26z m-151 -33 c-7 -12 -19 -21 -27 -21 -10 0 -7 8 9 25 27 29
37 27 18 -4z"/>
</g>
</svg>
